<svg xmlns="http://www.w3.org/2000/svg" width="20" height="20" viewBox="0 0 20 20" fill="none"><path fill-rule="evenodd" clip-rule="evenodd" d="M17.1635 3.93104C17.9526 4.14125 18.5735 4.76541 18.7838 5.56096C19.1654 7.00007 19.1621 10.0012 19.1621 10.0012C19.1621 10.0012 19.1621 13.0023 18.7805 14.4414C18.5703 15.2337 17.9494 15.8579 17.1603 16.0713C15.7309 16.4562 9.99708 16.4562 9.99708 16.4562C9.99708 16.4562 4.26327 16.4562 2.83385 16.0713C2.04477 15.8611 1.42385 15.237 1.21364 14.4414C0.832031 13.0023 0.832031 10.0012 0.832031 10.0012C0.832031 10.0012 0.832031 7.00007 1.21687 5.55773C1.42708 4.76541 2.048 4.14125 2.83709 3.92781C4.2665 3.54297 10.0003 3.54297 10.0003 3.54297C10.0003 3.54297 15.7309 3.54297 17.1635 3.93104ZM12.9177 9.99967L8.125 7.27344V12.7259L12.9177 9.99967Z" fill="#454545"></path></svg>