<svg xmlns="http://www.w3.org/2000/svg" width="20" height="20" viewBox="0 0 20 20" fill="none"><path d="M10.0002 7.35938C8.57379 7.35938 7.36133 8.57184 7.36133 9.99826C7.36133 11.4247 8.57379 12.6372 10.0002 12.6372C11.4266 12.6372 12.6391 11.4247 12.6391 9.99826C12.6391 8.57184 11.4266 7.35938 10.0002 7.35938Z" fill="#454545"></path><path d="M13.3832 2.08594H6.69004C4.09914 2.08594 2.08398 4.10109 2.08398 6.62003V13.3132C2.08398 15.9041 4.09914 17.9193 6.69004 17.9193H13.3832C15.9022 17.9193 17.9173 15.9041 17.9173 13.3132V6.62003C17.9173 4.10109 15.9022 2.08594 13.3832 2.08594ZM10.0007 14.1768C7.69762 14.1768 5.89838 12.3056 5.89838 10.0746C5.89838 7.84351 7.69762 5.90033 10.0007 5.90033C12.3037 5.90033 14.1029 7.77154 14.1029 10.0026C14.1029 12.2337 12.3037 14.1768 10.0007 14.1768ZM14.2469 6.76397C13.7431 6.76397 13.3113 6.33215 13.3113 5.82836C13.3113 5.32457 13.7431 4.89276 14.2469 4.89276C14.7507 4.89276 15.1825 5.32457 15.1825 5.82836C15.1825 6.33215 14.7507 6.76397 14.2469 6.76397Z" fill="#454545"></path></svg>