<svg xmlns="http://www.w3.org/2000/svg" width="20" height="20" viewBox="0 0 20 20" fill="none"><path d="M4.80727 8.24219C4.60752 8.24219 4.42996 8.3209 4.29679 8.46708C4.15252 8.61325 4.08594 8.79316 4.08594 9.00681C4.08594 9.22045 4.15252 9.38911 4.29679 9.54654C4.44105 9.69271 4.60752 9.77142 4.80727 9.77142C5.00702 9.77142 5.18458 9.69271 5.32885 9.54654C5.47311 9.40036 5.5508 9.22045 5.5508 9.00681C5.5508 8.79316 5.47311 8.61325 5.32885 8.46708C5.18458 8.30965 5.01812 8.24219 4.80727 8.24219Z" fill="#454545"></path><path d="M11.0319 8.23438C10.8321 8.23438 10.6546 8.31309 10.5214 8.45926C10.3771 8.60544 10.3105 8.78535 10.3105 8.99899C10.3105 9.21264 10.3771 9.3813 10.5214 9.53872C10.6657 9.6849 10.8321 9.76361 11.0319 9.76361C11.2316 9.76361 11.4092 9.6849 11.5535 9.53872C11.6977 9.39255 11.7754 9.21264 11.7754 8.99899C11.7754 8.78535 11.6977 8.61668 11.5535 8.45926C11.4203 8.30184 11.2427 8.23438 11.0319 8.23438Z" fill="#454545"></path><path d="M15.194 8.24219C14.9942 8.24219 14.8167 8.3209 14.6835 8.46708C14.5392 8.61325 14.4727 8.79316 14.4727 9.00681C14.4727 9.22045 14.5392 9.38911 14.6835 9.54654C14.8278 9.69271 14.9942 9.77142 15.194 9.77142C15.3937 9.77142 15.5713 9.69271 15.7156 9.54654C15.8598 9.40036 15.9375 9.22045 15.9375 9.00681C15.9375 8.79316 15.8598 8.61325 15.7156 8.46708C15.5713 8.30965 15.3937 8.24219 15.194 8.24219Z" fill="#454545"></path><path d="M17.0358 2.6875H2.96424C1.88779 2.6875 1 3.58705 1 4.67775V12.74C1 13.8307 1.88779 14.7302 2.96424 14.7302H8.49075C8.49075 14.7302 9.5561 17.6875 9.94451 17.6875C10.3329 17.6875 11.4871 14.7302 11.4871 14.7302H17.0358C18.1122 14.7302 19 13.8307 19 12.74V4.67775C19 3.58705 18.1122 2.6875 17.0358 2.6875ZM6.22688 10.1313C5.94945 10.4461 5.51665 10.5811 5.05055 10.5811C4.62885 10.5811 4.31813 10.4574 4.09618 10.2775H4.08508V10.5023H3.03083V5.83593H4.08508V7.62378H4.10728C4.39581 7.37641 4.77312 7.29769 5.21702 7.27521C5.59433 7.26396 5.99383 7.50009 6.23798 7.7812C6.47102 8.06231 6.64858 8.50084 6.64858 8.98435C6.64858 9.51284 6.51541 9.81644 6.22688 10.1313ZM8.50185 10.5473H7.4254C7.4254 10.5473 7.4254 8.09605 7.4254 7.65752C7.4254 6.9941 6.90382 6.90414 6.90382 6.90414V5.74597C6.90382 5.74597 8.41307 5.83593 8.50185 7.69125C8.50185 8.21973 8.50185 10.5473 8.50185 10.5473ZM12.73 9.65901C12.6412 9.87266 12.508 10.0526 12.3305 10.2212C12.164 10.3787 11.9642 10.5023 11.7423 10.5923C11.5203 10.6823 11.2873 10.7272 11.0432 10.7272C10.799 10.7272 10.566 10.6823 10.3551 10.5923C10.1332 10.5023 9.93342 10.3787 9.76695 10.2212C9.5894 10.0526 9.45623 9.86141 9.36745 9.65901C9.27867 9.45661 9.23428 9.23173 9.23428 8.9956C9.23428 8.75946 9.27867 8.54582 9.36745 8.33218C9.45623 8.12978 9.5894 7.93862 9.76695 7.76996C9.94451 7.61254 10.1332 7.48885 10.3551 7.39889C10.5771 7.30894 10.8101 7.26396 11.0432 7.26396C11.2873 7.26396 11.5203 7.30894 11.7423 7.39889C11.9642 7.48885 12.164 7.61254 12.3305 7.76996C12.508 7.93862 12.6301 8.11853 12.73 8.33218C12.8187 8.54582 12.8631 8.75946 12.8631 8.9956C12.8631 9.23173 12.8187 9.44537 12.73 9.65901ZM16.9692 10.12C16.9692 10.9409 16.8138 11.4356 16.4587 11.7842C16.0259 12.2002 15.4155 12.2227 14.9051 12.1553V11.3119C15.3379 11.3569 15.926 11.0646 15.926 10.5023V10.2887H15.9149C15.6708 10.626 15.3268 10.7497 14.8496 10.7497C14.4168 10.7497 14.0395 10.5923 13.7842 10.2887C13.529 9.9851 13.4069 9.5803 13.4069 9.07431C13.4069 8.50084 13.5512 8.05107 13.8286 7.71374C14.1171 7.37641 14.5166 7.21898 14.9827 7.21898C15.3933 7.21898 15.6597 7.32018 15.9149 7.55632H15.926V7.29769H16.9803V10.12H16.9692Z" fill="#454545"></path></svg>